<?xml version="1.0" encoding="utf-8" standalone="no"?>
<!DOCTYPE svg PUBLIC "-//W3C//DTD SVG 1.1//EN"
  "http://www.w3.org/Graphics/SVG/1.1/DTD/svg11.dtd">
<svg xmlns:xlink="http://www.w3.org/1999/xlink" width="496.486957pt" height="568.8pt" viewBox="0 0 496.486957 568.8" xmlns="http://www.w3.org/2000/svg" version="1.1">
 <metadata>
  <rdf:RDF xmlns:dc="http://purl.org/dc/elements/1.1/" xmlns:cc="http://creativecommons.org/ns#" xmlns:rdf="http://www.w3.org/1999/02/22-rdf-syntax-ns#">
   <cc:Work>
    <dc:type rdf:resource="http://purl.org/dc/dcmitype/StillImage"/>
    <dc:date>2026-06-30T04:57:57.643842</dc:date>
    <dc:format>image/svg+xml</dc:format>
    <dc:creator>
     <cc:Agent>
      <dc:title>Matplotlib v3.10.0, https://matplotlib.org/</dc:title>
     </cc:Agent>
    </dc:creator>
   </cc:Work>
  </rdf:RDF>
 </metadata>
 <defs>
  <style type="text/css">*{stroke-linejoin: round; stroke-linecap: butt}</style>
 </defs>
 <g id="figure_1">
  <g id="patch_1">
   <path d="M 0 568.8 
L 496.486957 568.8 
L 496.486957 0 
L 0 0 
L 0 568.8 
z
" style="fill: none"/>
  </g>
  <g id="axes_1">
   <g id="patch_2">
    <path d="M 248.243478 284.4 
L 263.076923 284.4 
L 263.076923 358.32 
L 266.785284 419.446154 
L 269.257525 433.661538 
L 248.243478 450.72 
L 227.229431 433.661538 
L 229.701672 419.446154 
L 233.410033 358.32 
L 233.410033 284.4 
z
" clip-path="url(#pcac0515ae2)"/>
   </g>
   <g id="patch_3">
    <path d="M 248.243478 284.4 
L 240.826756 271.55386 
L 296.493363 239.41473 
L 340.671184 209.626606 
L 350.14018 201.304981 
L 373.493344 212.086957 
L 371.154227 237.702377 
L 359.21299 241.741956 
L 311.326807 265.10701 
L 255.660201 297.24614 
z
" clip-path="url(#pcac0515ae2)"/>
   </g>
   <g id="patch_4">
    <path d="M 248.243478 284.4 
L 240.826756 297.24614 
L 185.160149 265.10701 
L 137.273967 241.741956 
L 125.33273 237.702377 
L 122.993613 212.086957 
L 146.346776 201.304981 
L 155.815773 209.626606 
L 199.993594 239.41473 
L 255.660201 271.55386 
z
" clip-path="url(#pcac0515ae2)"/>
   </g>
   <g id="line2d_1">
    <path d="M 248.243478 43.356522 
L 456.993254 163.878261 
" clip-path="url(#pcac0515ae2)" style="fill: none; stroke: #8d8d8d; stroke-width: 15; stroke-linecap: round"/>
   </g>
   <g id="line2d_2">
    <path d="M 456.993254 163.878261 
L 456.993254 404.921739 
" clip-path="url(#pcac0515ae2)" style="fill: none; stroke: #8d8d8d; stroke-width: 15; stroke-linecap: round"/>
   </g>
   <g id="line2d_3">
    <path d="M 456.993254 404.921739 
L 248.243478 525.443478 
" clip-path="url(#pcac0515ae2)" style="fill: none; stroke: #8d8d8d; stroke-width: 15; stroke-linecap: round"/>
   </g>
   <g id="line2d_4">
    <path d="M 248.243478 525.443478 
L 39.493703 404.921739 
" clip-path="url(#pcac0515ae2)" style="fill: none; stroke: #8d8d8d; stroke-width: 15; stroke-linecap: round"/>
   </g>
   <g id="line2d_5">
    <path d="M 39.493703 404.921739 
L 39.493703 163.878261 
" clip-path="url(#pcac0515ae2)" style="fill: none; stroke: #8d8d8d; stroke-width: 15; stroke-linecap: round"/>
   </g>
   <g id="line2d_6">
    <path d="M 39.493703 163.878261 
L 248.243478 43.356522 
" clip-path="url(#pcac0515ae2)" style="fill: none; stroke: #8d8d8d; stroke-width: 15; stroke-linecap: round"/>
   </g>
   <g id="line2d_7">
    <path d="M 41.5812 165.083478 
L 111.164459 205.257391 
" clip-path="url(#pcac0515ae2)" style="fill: none; stroke: #8d8d8d; stroke-width: 15; stroke-linecap: round"/>
   </g>
   <g id="line2d_8">
    <path d="M 454.905756 165.083478 
L 385.322498 205.257391 
" clip-path="url(#pcac0515ae2)" style="fill: none; stroke: #8d8d8d; stroke-width: 15; stroke-linecap: round"/>
   </g>
   <g id="line2d_9">
    <path d="M 248.243478 523.033043 
L 248.243478 462.772174 
" clip-path="url(#pcac0515ae2)" style="fill: none; stroke: #8d8d8d; stroke-width: 15; stroke-linecap: round"/>
   </g>
  </g>
 </g>
 <defs>
  <clipPath id="pcac0515ae2">
   <rect x="7.2" y="7.2" width="482.086957" height="554.4"/>
  </clipPath>
 </defs>
</svg>
