<svg xmlns="http://www.w3.org/2000/svg" version="1.1" xmlns:xlink="http://www.w3.org/1999/xlink" width="1000" height="1000"><metadata><rdf:RDF xmlns:rdf="http://www.w3.org/1999/02/22-rdf-syntax-ns#" xmlns:dc="http://purl.org/dc/elements/1.1/"><rdf:Description><dc:creator>RealFaviconGenerator</dc:creator><dc:source>https://realfavicongenerator.net</dc:source></rdf:Description></rdf:RDF></metadata><g clip-path="url(#SvgjsClipPath1033)"><rect width="1000" height="1000" fill="#ffffff"></rect><g transform="matrix(2.0833333333333335,0,0,2.0833333333333335,107.29166666666663,49.99999999999994)"><svg xmlns="http://www.w3.org/2000/svg" xmlns:xlink="http://www.w3.org/1999/xlink" width="377" height="432" xml:space="preserve" overflow="hidden"><g transform="translate(-269 -156)"><g><g><g><path d="M212.205 243.113 224.885 243.113 224.885 306.302 228.055 358.554 230.169 370.706 212.205 385.288 194.242 370.706 196.355 358.554 199.525 306.302 199.525 243.113Z" fill="#000000" fill-rule="nonzero" fill-opacity="1" transform="matrix(1.00034 0 0 1 245.65 129.732)"></path><path d="M212.205 243.113 205.865 232.132 253.45 204.658 291.215 179.194 299.309 172.081 319.272 181.298 317.273 203.194 307.065 206.648 266.13 226.621 218.545 254.094Z" fill="#000000" fill-rule="nonzero" fill-opacity="1" transform="matrix(1.00034 0 0 1 245.65 129.732)"></path><path d="M212.205 243.113 205.865 254.094 158.28 226.621 117.345 206.648 107.138 203.194 105.138 181.298 125.101 172.081 133.195 179.194 170.96 204.658 218.545 232.132Z" fill="#000000" fill-rule="nonzero" fill-opacity="1" transform="matrix(1.00034 0 0 1 245.65 129.732)"></path><path d="M212.205 37.0623 390.65 140.088" stroke="#8D8D8D" stroke-width="17.0965" stroke-linecap="round" stroke-linejoin="round" stroke-miterlimit="4" stroke-opacity="1" fill="none" fill-rule="nonzero" transform="matrix(1.00034 0 0 1 245.65 129.732)"></path><path d="M390.65 140.088 390.65 346.138" stroke="#8D8D8D" stroke-width="17.0965" stroke-linecap="round" stroke-linejoin="round" stroke-miterlimit="4" stroke-opacity="1" fill="none" fill-rule="nonzero" transform="matrix(1.00034 0 0 1 245.65 129.732)"></path><path d="M390.65 346.138 212.205 449.163" stroke="#8D8D8D" stroke-width="17.0965" stroke-linecap="round" stroke-linejoin="round" stroke-miterlimit="4" stroke-opacity="1" fill="none" fill-rule="nonzero" transform="matrix(1.00034 0 0 1 245.65 129.732)"></path><path d="M212.205 449.163 33.7603 346.138" stroke="#8D8D8D" stroke-width="17.0965" stroke-linecap="round" stroke-linejoin="round" stroke-miterlimit="4" stroke-opacity="1" fill="none" fill-rule="nonzero" transform="matrix(1.00034 0 0 1 245.65 129.732)"></path><path d="M33.7603 346.138 33.7603 140.088" stroke="#8D8D8D" stroke-width="17.0965" stroke-linecap="round" stroke-linejoin="round" stroke-miterlimit="4" stroke-opacity="1" fill="none" fill-rule="nonzero" transform="matrix(1.00034 0 0 1 245.65 129.732)"></path><path d="M33.7603 140.088 212.205 37.0623" stroke="#8D8D8D" stroke-width="17.0965" stroke-linecap="round" stroke-linejoin="round" stroke-miterlimit="4" stroke-opacity="1" fill="none" fill-rule="nonzero" transform="matrix(1.00034 0 0 1 245.65 129.732)"></path><path d="M35.5447 141.118 95.0264 175.46" stroke="#8D8D8D" stroke-width="17.0965" stroke-linecap="round" stroke-linejoin="round" stroke-miterlimit="4" stroke-opacity="1" fill="none" fill-rule="nonzero" transform="matrix(1.00034 0 0 1 245.65 129.732)"></path><path d="M388.866 141.118 329.384 175.46" stroke="#8D8D8D" stroke-width="17.0965" stroke-linecap="round" stroke-linejoin="round" stroke-miterlimit="4" stroke-opacity="1" fill="none" fill-rule="nonzero" transform="matrix(1.00034 0 0 1 245.65 129.732)"></path><path d="M212.205 447.103 212.205 395.59" stroke="#8D8D8D" stroke-width="17.0965" stroke-linecap="round" stroke-linejoin="round" stroke-miterlimit="4" stroke-opacity="1" fill="none" fill-rule="nonzero" transform="matrix(1.00034 0 0 1 245.65 129.732)"></path></g></g></g></g></svg></g></g><defs><clipPath id="SvgjsClipPath1033"><rect width="1000" height="1000" x="0" y="0" rx="200" ry="200"></rect></clipPath></defs></svg>