<svg width="3548" height="1870" xmlns="http://www.w3.org/2000/svg" xmlns:xlink="http://www.w3.org/1999/xlink" xml:space="preserve" overflow="hidden"><g transform="translate(-838 -444)"><g><g><g><g><g><path d="M729.596 835.861 773.192 835.861 773.192 1053.11 784.091 1232.77 791.357 1274.55 729.596 1324.68 667.835 1274.55 675.101 1232.77 686 1053.11 686 835.861Z" fill="#000000" fill-rule="nonzero" fill-opacity="1" transform="matrix(1 0 0 1.00076 843.404 445)"/></g><g><path d="M729.596 835.861 707.798 798.106 871.404 703.648 1001.24 616.1 1029.07 591.642 1097.71 623.331 1090.83 698.615 1055.74 710.488 915 779.159 751.394 873.616Z" fill="#000000" fill-rule="nonzero" fill-opacity="1" transform="matrix(1 0 0 1.00076 843.404 445)"/></g><g><path d="M729.596 835.861 707.798 873.616 544.192 779.159 403.453 710.488 368.357 698.615 361.482 623.331 430.118 591.642 457.948 616.1 587.788 703.648 751.394 798.106Z" fill="#000000" fill-rule="nonzero" fill-opacity="1" transform="matrix(1 0 0 1.00076 843.404 445)"/></g><g><path d="M729.596 127.426 1343.12 481.644" stroke="#8D8D8D" stroke-width="44.0855" stroke-linecap="round" stroke-linejoin="round" stroke-miterlimit="4" stroke-opacity="1" fill="none" fill-rule="nonzero" transform="matrix(1 0 0 1.00076 843.404 445)"/></g><g><path d="M1343.12 481.644 1343.12 1190.08" stroke="#8D8D8D" stroke-width="44.0855" stroke-linecap="round" stroke-linejoin="round" stroke-miterlimit="4" stroke-opacity="1" fill="none" fill-rule="nonzero" transform="matrix(1 0 0 1.00076 843.404 445)"/></g><g><path d="M1343.12 1190.08 729.596 1544.3" stroke="#8D8D8D" stroke-width="44.0855" stroke-linecap="round" stroke-linejoin="round" stroke-miterlimit="4" stroke-opacity="1" fill="none" fill-rule="nonzero" transform="matrix(1 0 0 1.00076 843.404 445)"/></g><g><path d="M729.596 1544.3 116.073 1190.08" stroke="#8D8D8D" stroke-width="44.0855" stroke-linecap="round" stroke-linejoin="round" stroke-miterlimit="4" stroke-opacity="1" fill="none" fill-rule="nonzero" transform="matrix(1 0 0 1.00076 843.404 445)"/></g><g><path d="M116.073 1190.08 116.073 481.644" stroke="#8D8D8D" stroke-width="44.0855" stroke-linecap="round" stroke-linejoin="round" stroke-miterlimit="4" stroke-opacity="1" fill="none" fill-rule="nonzero" transform="matrix(1 0 0 1.00076 843.404 445)"/></g><g><path d="M116.073 481.644 729.596 127.426" stroke="#8D8D8D" stroke-width="44.0855" stroke-linecap="round" stroke-linejoin="round" stroke-miterlimit="4" stroke-opacity="1" fill="none" fill-rule="nonzero" transform="matrix(1 0 0 1.00076 843.404 445)"/></g><g><path d="M122.209 485.186 326.716 603.258" stroke="#8D8D8D" stroke-width="44.0855" stroke-linecap="round" stroke-linejoin="round" stroke-miterlimit="4" stroke-opacity="1" fill="none" fill-rule="nonzero" transform="matrix(1 0 0 1.00076 843.404 445)"/></g><g><path d="M1336.98 485.186 1132.48 603.258" stroke="#8D8D8D" stroke-width="44.0855" stroke-linecap="round" stroke-linejoin="round" stroke-miterlimit="4" stroke-opacity="1" fill="none" fill-rule="nonzero" transform="matrix(1 0 0 1.00076 843.404 445)"/></g><g><path d="M729.596 1537.21 729.596 1360.1" stroke="#8D8D8D" stroke-width="44.0855" stroke-linecap="round" stroke-linejoin="round" stroke-miterlimit="4" stroke-opacity="1" fill="none" fill-rule="nonzero" transform="matrix(1 0 0 1.00076 843.404 445)"/></g></g></g></g><text fill="#000000" fill-opacity="1" font-family="Optima,Optima_MSFontService,sans-serif" font-style="normal" font-variant="normal" font-weight="700" font-stretch="normal" font-size="633" text-anchor="start" direction="ltr" writing-mode="lr-tb" unicode-bidi="normal" text-decoration="none" transform="matrix(1 0 0 1 1648.84 1761)">okoi</text><text fill="#000000" fill-opacity="1" font-family="Optima,Optima_MSFontService,sans-serif" font-style="normal" font-variant="normal" font-weight="700" font-stretch="normal" font-size="633" text-anchor="start" direction="ltr" writing-mode="lr-tb" unicode-bidi="normal" text-decoration="none" transform="matrix(1 0 0 1 3020.4 1761)">Lab</text></g></g></svg>