<svg width="706" height="343" xmlns="http://www.w3.org/2000/svg" xmlns:xlink="http://www.w3.org/1999/xlink" xml:space="preserve" overflow="hidden"><defs><clipPath id="clip0"><rect x="238" y="226" width="706" height="343"/></clipPath><clipPath id="clip1"><rect x="238" y="226" width="706" height="343"/></clipPath><clipPath id="clip2"><rect x="239" y="227" width="704" height="342"/></clipPath><clipPath id="clip3"><rect x="239" y="227" width="704" height="342"/></clipPath></defs><g clip-path="url(#clip0)" transform="translate(-238 -226)"><g clip-path="url(#clip1)"><g clip-path="url(#clip2)"><g clip-path="url(#clip3)"><path d="M167.546 191.949 177.557 191.949 177.557 241.838 180.06 283.095 181.729 292.69 167.546 304.202 153.363 292.69 155.031 283.095 157.534 241.838 157.534 191.949Z" fill="#000000" fill-rule="nonzero" fill-opacity="1" transform="matrix(1.00152 0 0 1 219.745 205.422)"/><path d="M167.546 191.949 162.54 183.278 200.111 161.587 229.926 141.482 236.317 135.866 252.08 143.143 250.5 160.431 242.442 163.158 210.122 178.927 172.551 200.619Z" fill="#000000" fill-rule="nonzero" fill-opacity="1" transform="matrix(1.00152 0 0 1 219.745 205.422)"/><path d="M167.546 191.949 162.54 200.619 124.969 178.927 92.6496 163.158 84.5901 160.431 83.0113 143.143 98.773 135.866 105.164 141.482 134.981 161.587 172.551 183.278Z" fill="#000000" fill-rule="nonzero" fill-opacity="1" transform="matrix(1.00152 0 0 1 219.745 205.422)"/><path d="M167.546 29.2623 308.436 110.606" stroke="#8D8D8D" stroke-width="13.4985" stroke-linecap="round" stroke-linejoin="round" stroke-miterlimit="4" stroke-opacity="1" fill="none" fill-rule="nonzero" transform="matrix(1.00152 0 0 1 219.745 205.422)"/><path d="M308.436 110.606 308.436 273.292" stroke="#8D8D8D" stroke-width="13.4985" stroke-linecap="round" stroke-linejoin="round" stroke-miterlimit="4" stroke-opacity="1" fill="none" fill-rule="nonzero" transform="matrix(1.00152 0 0 1 219.745 205.422)"/><path d="M308.436 273.292 167.546 354.636" stroke="#8D8D8D" stroke-width="13.4985" stroke-linecap="round" stroke-linejoin="round" stroke-miterlimit="4" stroke-opacity="1" fill="none" fill-rule="nonzero" transform="matrix(1.00152 0 0 1 219.745 205.422)"/><path d="M167.546 354.636 26.6552 273.292" stroke="#8D8D8D" stroke-width="13.4985" stroke-linecap="round" stroke-linejoin="round" stroke-miterlimit="4" stroke-opacity="1" fill="none" fill-rule="nonzero" transform="matrix(1.00152 0 0 1 219.745 205.422)"/><path d="M26.6552 273.292 26.6552 110.606" stroke="#8D8D8D" stroke-width="13.4985" stroke-linecap="round" stroke-linejoin="round" stroke-miterlimit="4" stroke-opacity="1" fill="none" fill-rule="nonzero" transform="matrix(1.00152 0 0 1 219.745 205.422)"/><path d="M26.6552 110.606 167.546 29.2623" stroke="#8D8D8D" stroke-width="13.4985" stroke-linecap="round" stroke-linejoin="round" stroke-miterlimit="4" stroke-opacity="1" fill="none" fill-rule="nonzero" transform="matrix(1.00152 0 0 1 219.745 205.422)"/><path d="M28.0643 111.419 75.0276 138.533" stroke="#8D8D8D" stroke-width="13.4985" stroke-linecap="round" stroke-linejoin="round" stroke-miterlimit="4" stroke-opacity="1" fill="none" fill-rule="nonzero" transform="matrix(1.00152 0 0 1 219.745 205.422)"/><path d="M307.026 111.419 260.065 138.533" stroke="#8D8D8D" stroke-width="13.4985" stroke-linecap="round" stroke-linejoin="round" stroke-miterlimit="4" stroke-opacity="1" fill="none" fill-rule="nonzero" transform="matrix(1.00152 0 0 1 219.745 205.422)"/><path d="M167.546 353.007 167.546 312.336" stroke="#8D8D8D" stroke-width="13.4985" stroke-linecap="round" stroke-linejoin="round" stroke-miterlimit="4" stroke-opacity="1" fill="none" fill-rule="nonzero" transform="matrix(1.00152 0 0 1 219.745 205.422)"/><text fill="#000000" fill-opacity="1" font-family="Optima,Optima_MSFontService,sans-serif" font-style="normal" font-variant="normal" font-weight="700" font-stretch="normal" font-size="633" text-anchor="start" direction="ltr" writing-mode="lr-tb" unicode-bidi="normal" text-decoration="none" transform="matrix(0.22999 0 0 0.229467 404.987 507)">okoi</text><text fill="#000000" fill-opacity="1" font-family="Optima,Optima_MSFontService,sans-serif" font-style="normal" font-variant="normal" font-weight="700" font-stretch="normal" font-size="633" text-anchor="start" direction="ltr" writing-mode="lr-tb" unicode-bidi="normal" text-decoration="none" transform="matrix(0.22999 0 0 0.229467 720.432 507)">Lab</text></g></g></g></g></svg>